<svg xmlns="http://www.w3.org/2000/svg" xmlns:xlink="http://www.w3.org/1999/xlink" xmlns:lucid="lucid" width="200" height="1020"><g transform="translate(-179.9999999999984 0)" lucid:page-tab-id="0_0"><path d="M328 20c17.67 0 32 13.43 32 30s-14.33 30-32 30h-96c-17.67 0-32-13.43-32-30s14.33-30 32-30z" stroke="#7ab648" stroke-width="2" fill="#fff"/><use xlink:href="#a" transform="matrix(1,0,0,1,204.9999999999992,25) translate(46.1037037037037 29.211111111111112)"/><path d="M280 82v18.5" stroke="#000" stroke-width="2" fill="none"/><path d="M281 82.03h-2V81h2z"/><path d="M280 115.76l-4.64-14.26h9.28z" stroke="#000" stroke-width="2"/><path d="M328 120c17.67 0 32 14.18 32 31.67 0 17.5-14.33 31.66-32 31.66h-96c-17.67 0-32-14.17-32-31.66 0-17.5 14.33-31.67 32-31.67z" stroke="#7ab648" stroke-width="2" fill="#fff"/><use xlink:href="#b" transform="matrix(1,0,0,1,204.9999999999992,125.00000000000003) translate(39.087716049382706 20.086111111111112)"/><use xlink:href="#c" transform="matrix(1,0,0,1,204.9999999999992,125.00000000000003) translate(34.590802469135795 42.437222222222225)"/><path d="M328 223.33c17.67 0 32 17.9 32 40s-14.33 40-32 40h-96c-17.67 0-32-17.9-32-40s14.33-40 32-40z" stroke="#7ab648" stroke-width="2" fill="#fff"/><use xlink:href="#d" transform="matrix(1,0,0,1,205,228.33333333333331) translate(36.2445061728395 16.711111111111112)"/><use xlink:href="#e" transform="matrix(1,0,0,1,205,228.33333333333331) translate(30.87222222222222 39.062222222222225)"/><use xlink:href="#f" transform="matrix(1,0,0,1,205,228.33333333333331) translate(107.46481481481482 39.062222222222225)"/><use xlink:href="#g" transform="matrix(1,0,0,1,205,228.33333333333331) translate(43.72969135802469 61.41333333333334)"/><path d="M328 343.33c17.67 0 32 17.9 32 40s-14.33 40-32 40h-96c-17.67 0-32-17.9-32-40s14.33-40 32-40z" stroke="#7ab648" stroke-width="2" fill="#fff"/><use xlink:href="#h" transform="matrix(1,0,0,1,205,348.3333333333333) translate(27.912962962962965 38.58611111111111)"/><use xlink:href="#i" transform="matrix(1,0,0,1,205,348.3333333333333) translate(44.566049382716045 38.58611111111111)"/><path d="M328 460c17.67 0 32 17.9 32 40s-14.33 40-32 40h-96c-17.67 0-32-17.9-32-40s14.33-40 32-40z" stroke="#7ab648" stroke-width="2" fill="#fff"/><use xlink:href="#j" transform="matrix(1,0,0,1,205,464.9999999999998) translate(18.517962962962965 27.648611111111112)"/><use xlink:href="#k" transform="matrix(1,0,0,1,205,464.9999999999998) translate(50.63462962962962 49.99972222222222)"/><path d="M280 185.33v18.5" stroke="#000" stroke-width="2" fill="none"/><path d="M281 185.36h-2v-1.03h2z"/><path d="M280 219.1l-4.64-14.27h9.28z" stroke="#000" stroke-width="2"/><path d="M280 305.33v18.5" stroke="#000" stroke-width="2" fill="none"/><path d="M281 305.36h-2v-1.03h2z"/><path d="M280 339.1l-4.64-14.27h9.28z" stroke="#000" stroke-width="2"/><path d="M280 425.33v15.17" stroke="#000" stroke-width="2" fill="none"/><path d="M281 425.36h-2v-1.03h2z"/><path d="M280 455.76l-4.64-14.26h9.28z" stroke="#000" stroke-width="2"/><path d="M280 650.33v16.42" stroke="#000" stroke-width="2" fill="none"/><path d="M281 650.36h-2v-1.03h2z"/><path d="M280 682l-4.64-14.25h9.28z" stroke="#000" stroke-width="2"/><path d="M280 769.25v16.4" stroke="#000" stroke-width="2" fill="none"/><path d="M281 769.28h-2v-1.03h2z"/><path d="M280 800.93l-4.64-14.27h9.28z" stroke="#000" stroke-width="2"/><path d="M280 888.17v16.4" stroke="#000" stroke-width="2" fill="none"/><path d="M281 888.2h-2v-1.03h2z"/><path d="M280 919.85l-4.64-14.27h9.28z" stroke="#000" stroke-width="2"/><path d="M200 590.5c0-3.3 2.7-6 6-6h148c3.3 0 6 2.7 6 6v51.33c0 3.32-2.7 6-6 6H206c-3.3 0-6-2.68-6-6z" stroke="#fcc438" stroke-width="3" fill="#fff"/><use xlink:href="#l" transform="matrix(1,0,0,1,211.9999999999992,596.4999999999997) translate(42.96913580246914 25.27777777777778)"/><path d="M280 542v22.5" stroke="#000" stroke-width="2" fill="none"/><path d="M281 542.03h-2V541h2z"/><path d="M280 579.76l-4.64-14.26h9.28z" stroke="#000" stroke-width="2"/><path d="M200 692.75c0-3.3 2.7-6 6-6h148c3.3 0 6 2.7 6 6v68c0 3.3-2.7 6-6 6H206c-3.3 0-6-2.7-6-6z" stroke="#fcc438" stroke-width="3" fill="#fff"/><g><use xlink:href="#m" transform="matrix(1,0,0,1,212,698.75) translate(2.305555555555557 19.555555555555557)"/><use xlink:href="#n" transform="matrix(1,0,0,1,212,698.75) translate(20.740740740740748 48.88888888888889)"/></g><path d="M200 811.67c0-3.32 2.7-6 6-6h148c3.3 0 6 2.68 6 6v68c0 3.3-2.7 6-6 6H206c-3.3 0-6-2.7-6-6z" stroke="#fcc438" stroke-width="3" fill="#fff"/><g><use xlink:href="#o" transform="matrix(1,0,0,1,204.9999999999984,810.6666666666666) translate(39.52160493827161 26.118055555555557)"/><use xlink:href="#p" transform="matrix(1,0,0,1,204.9999999999984,810.6666666666666) translate(18.913580246913583 55.45138888888889)"/></g><path d="M200 930.58c0-3.3 2.7-6 6-6h148c3.3 0 6 2.7 6 6V994c0 3.3-2.7 6-6 6H206c-3.3 0-6-2.7-6-6z" stroke="#fcc438" stroke-width="3" fill="#fff"/><g><use xlink:href="#q" transform="matrix(1,0,0,1,204.9999999999984,929.5833333333333) translate(39.35185185185185 23.680555555555557)"/><use xlink:href="#n" transform="matrix(1,0,0,1,204.9999999999984,929.5833333333333) translate(27.740740740740748 53.01388888888889)"/></g><defs><path fill="#333" d="M30 0v-248h187v28H63v79h144v27H63v87h162V0H30" id="r"/><path fill="#333" d="M30-248c87 1 191-15 191 75 0 78-77 80-158 76V0H30v-248zm33 125c57 0 124 11 124-50 0-59-68-47-124-48v98" id="s"/><path fill="#333" d="M30 0v-248h30L58-37l132-211h39V0h-30l1-209L70 0H30" id="t"/><path fill="#333" d="M197 0v-219H63V0H30v-248h201V0h-34" id="u"/><g id="a"><use transform="matrix(0.05802469135802469,0,0,0.05802469135802469,0,0)" xlink:href="#r"/><use transform="matrix(0.05802469135802469,0,0,0.05802469135802469,13.925925925925926,0)" xlink:href="#s"/><use transform="matrix(0.05802469135802469,0,0,0.05802469135802469,27.85185185185185,0)" xlink:href="#t"/><use transform="matrix(0.05802469135802469,0,0,0.05802469135802469,42.82222222222222,0)" xlink:href="#u"/></g><path fill="#333" d="M115-194c55 1 70 41 70 98S169 2 115 4C84 4 66-9 55-30l1 105H24l-1-265h31l2 30c10-21 28-34 59-34zm-8 174c40 0 45-34 45-75s-6-73-45-74c-42 0-51 32-51 76 0 43 10 73 51 73" id="v"/><path fill="#333" d="M100-194c62-1 85 37 85 99 1 63-27 99-86 99S16-35 15-95c0-66 28-99 85-99zM99-20c44 1 53-31 53-75 0-43-8-75-51-75s-53 32-53 75 10 74 51 75" id="w"/><path fill="#333" d="M131-81C94-61 21-56 21-118v-72h32c4 39-16 99 29 99 19 0 33-5 49-8v-91h31V0h-31v-81" id="x"/><path fill="#333" d="M56-190L54-37l88-153h34V0h-30l2-153L59 0H25v-190h31" id="y"/><path fill="#333" d="M100-194c63 0 86 42 84 106H49c0 40 14 67 53 68 26 1 43-12 49-29l28 8c-11 28-37 45-77 45C44 4 14-33 15-96c1-61 26-98 85-98zm52 81c6-60-76-77-97-28-3 7-6 17-6 28h103" id="z"/><g id="b"><use transform="matrix(0.05802469135802469,0,0,0.05802469135802469,0,0)" xlink:href="#u"/><use transform="matrix(0.05802469135802469,0,0,0.05802469135802469,14.97037037037037,0)" xlink:href="#v"/><use transform="matrix(0.05802469135802469,0,0,0.05802469135802469,26.575308641975308,0)" xlink:href="#w"/><use transform="matrix(0.05802469135802469,0,0,0.05802469135802469,37.71604938271605,0)" xlink:href="#x"/><use transform="matrix(0.05802469135802469,0,0,0.05802469135802469,48.56666666666667,0)" xlink:href="#y"/><use transform="matrix(0.05802469135802469,0,0,0.05802469135802469,60.22962962962964,0)" xlink:href="#z"/></g><path fill="#333" d="M170-190V0h-32v-167H57V0H25v-190h145" id="A"/><path fill="#333" d="M153 0v-167H87C74-108 81-27 38 0 29 5 12 6 2 1v-22c51 4 39-64 49-112 5-25 4-25 8-57h126V0h-32" id="B"/><path fill="#333" d="M141-36C126-15 110 5 73 4 37 3 15-17 15-53c-1-64 63-63 125-63 3-35-9-54-41-54-24 1-41 7-42 31l-33-3c5-37 33-52 76-52 45 0 72 20 72 64v82c-1 20 7 32 28 27v20c-31 9-61-2-59-35zM48-53c0 20 12 33 32 33 41-3 63-29 60-74-43 2-92-5-92 41" id="C"/><path fill="#333" d="M6-190h153v23H98V0H67v-167H6v-23" id="D"/><path fill="#333" d="M156-87c-4 1-15 3-20 3V0h-31v-84c-5 0-16-2-20-3L36 0H1l62-104c-22-24-40-59-60-86h33l50 76c5 5 9 7 19 7v-83h31v83c27-1 31-21 43-41l26-42h33l-60 86L240 0h-36" id="E"/><g id="c"><use transform="matrix(0.05802469135802469,0,0,0.05802469135802469,0,0)" xlink:href="#A"/><use transform="matrix(0.05802469135802469,0,0,0.05802469135802469,11.25679012345679,0)" xlink:href="#B"/><use transform="matrix(0.05802469135802469,0,0,0.05802469135802469,23.441975308641975,0)" xlink:href="#C"/><use transform="matrix(0.05802469135802469,0,0,0.05802469135802469,34.58271604938272,0)" xlink:href="#D"/><use transform="matrix(0.05802469135802469,0,0,0.05802469135802469,43.86666666666667,0)" xlink:href="#z"/><use transform="matrix(0.05802469135802469,0,0,0.05802469135802469,55.239506172839505,0)" xlink:href="#E"/><use transform="matrix(0.05802469135802469,0,0,0.05802469135802469,69.16543209876544,0)" xlink:href="#y"/></g><path fill="#333" d="M127-220V0H93v-220H8v-28h204v28h-85" id="F"/><path fill="#333" d="M176-55C176 11 93 0 25 0v-190c61 3 142-15 144 47 1 29-21 35-39 44 27 3 46 16 46 44zm-34 0c0-41-47-30-85-32v64c38-1 85 8 85-32zm-6-83c0-36-44-26-79-28v56c34-2 79 8 79-28" id="G"/><path fill="#333" d="M170-56C169 10 92 0 25 0v-190h32v80c58-2 114-1 113 54zm-34 0c0-38-42-32-79-32v66c38 0 79 5 79-34zm66 56v-190h32V0h-32" id="H"/><path fill="#333" d="M68-38c1 34 0 65-14 84H32c9-13 17-26 17-46H33v-38h35" id="I"/><g id="d"><use transform="matrix(0.05802469135802469,0,0,0.05802469135802469,0,0)" xlink:href="#F"/><use transform="matrix(0.05802469135802469,0,0,0.05802469135802469,11.082716049382716,0)" xlink:href="#w"/><use transform="matrix(0.05802469135802469,0,0,0.05802469135802469,22.687654320987654,0)" xlink:href="#G"/><use transform="matrix(0.05802469135802469,0,0,0.05802469135802469,33.538271604938274,0)" xlink:href="#C"/><use transform="matrix(0.05802469135802469,0,0,0.05802469135802469,45.14320987654321,0)" xlink:href="#v"/><use transform="matrix(0.05802469135802469,0,0,0.05802469135802469,56.74814814814815,0)" xlink:href="#H"/><use transform="matrix(0.05802469135802469,0,0,0.05802469135802469,71.71851851851852,0)" xlink:href="#I"/></g><path fill="#333" d="M105-20c41 1 53-27 53-68 0-40-9-69-50-69s-54 27-54 69c0 40 12 68 51 68zM47-134c10-28 31-47 68-47 56 0 76 33 76 92 1 60-28 90-86 93C-9 9 1-201 72-238c29-15 73-21 110-26v28c-67 12-144 10-135 102" id="J"/><g id="e"><use transform="matrix(0.05802469135802469,0,0,0.05802469135802469,0,0)" xlink:href="#v"/><use transform="matrix(0.05802469135802469,0,0,0.05802469135802469,11.604938271604938,0)" xlink:href="#C"/><use transform="matrix(0.05802469135802469,0,0,0.05802469135802469,23.209876543209877,0)" xlink:href="#J"/><use transform="matrix(0.05802469135802469,0,0,0.05802469135802469,35.162962962962965,0)" xlink:href="#w"/><use transform="matrix(0.05802469135802469,0,0,0.05802469135802469,46.303703703703704,0)" xlink:href="#D"/><use transform="matrix(0.05802469135802469,0,0,0.05802469135802469,55.81975308641975,0)" xlink:href="#H"/></g><use transform="matrix(0.05802469135802469,0,0,0.05802469135802469,0,0)" xlink:href="#y" id="f"/><path fill="#333" d="M179-190L93 31C79 59 56 82 12 73V49c39 6 53-20 64-50L1-190h34L92-34l54-156h33" id="K"/><path fill="#333" d="M96-169c-40 0-48 33-48 73s9 75 48 75c24 0 41-14 43-38l32 2c-6 37-31 61-74 61-59 0-76-41-82-99-10-93 101-131 147-64 4 7 5 14 7 22l-32 3c-4-21-16-35-41-35" id="L"/><path fill="#333" d="M121-190v23H57V0H25v-190h96" id="M"/><g id="g"><use transform="matrix(0.05802469135802469,0,0,0.05802469135802469,0,0)" xlink:href="#K"/><use transform="matrix(0.05802469135802469,0,0,0.05802469135802469,10.212345679012346,0)" xlink:href="#L"/><use transform="matrix(0.05802469135802469,0,0,0.05802469135802469,20.65679012345679,0)" xlink:href="#B"/><use transform="matrix(0.05802469135802469,0,0,0.05802469135802469,32.84197530864198,0)" xlink:href="#K"/><use transform="matrix(0.05802469135802469,0,0,0.05802469135802469,43.28641975308642,0)" xlink:href="#M"/><use transform="matrix(0.05802469135802469,0,0,0.05802469135802469,50.88765432098766,0)" xlink:href="#y"/></g><path fill="#333" d="M33 0v-38h34V0H33" id="N"/><g id="h"><use transform="matrix(0.05802469135802469,0,0,0.05802469135802469,0,0)" xlink:href="#M"/><use transform="matrix(0.05802469135802469,0,0,0.05802469135802469,5.048148148148147,0)" xlink:href="#N"/></g><path fill="#333" d="M160-131c35 5 61 23 61 61C221 17 115-2 30 0v-248c76 3 177-17 177 60 0 33-19 50-47 57zm-97-11c50-1 110 9 110-42 0-47-63-36-110-37v79zm0 115c55-2 124 14 124-45 0-56-70-42-124-44v89" id="O"/><path fill="#333" d="M75-87c-4 1-14 3-19 3V0H24v-190h32v83c26-2 31-21 43-41l26-42h33l-61 86L159 0h-35" id="P"/><g id="i"><use transform="matrix(0.05802469135802469,0,0,0.05802469135802469,0,0)" xlink:href="#O"/><use transform="matrix(0.05802469135802469,0,0,0.05802469135802469,13.925925925925926,0)" xlink:href="#y"/><use transform="matrix(0.05802469135802469,0,0,0.05802469135802469,25.58888888888889,0)" xlink:href="#D"/><use transform="matrix(0.05802469135802469,0,0,0.05802469135802469,34.87283950617284,0)" xlink:href="#z"/><use transform="matrix(0.05802469135802469,0,0,0.05802469135802469,46.245679012345676,0)" xlink:href="#J"/><use transform="matrix(0.05802469135802469,0,0,0.05802469135802469,57.96666666666666,0)" xlink:href="#L"/><use transform="matrix(0.05802469135802469,0,0,0.05802469135802469,68.41111111111111,0)" xlink:href="#P"/></g><path fill="#333" d="M205 0l-28-72H64L36 0H1l101-248h38L239 0h-34zm-38-99l-47-123c-12 45-31 82-46 123h93" id="Q"/><path fill="#333" d="M165-267c8 67-110 75-125 20-2-7-4-13-4-20h29c1 23 13 35 36 35s34-13 36-35h28zM56-190L54-37l88-153h34V0h-30l2-153L59 0H25v-190h31" id="R"/><path fill="#333" d="M206-28h31V72h-32V0H34v72H3V-28h25c38-50 38-143 51-220h127v220zm-32 0v-192h-66C95-156 94-78 66-28h108" id="S"/><path fill="#333" d="M212-179c-10-28-35-45-73-45-59 0-87 40-87 99 0 60 29 101 89 101 43 0 62-24 78-52l27 14C228-24 195 4 139 4 59 4 22-46 18-125c-6-104 99-153 187-111 19 9 31 26 39 46" id="T"/><path fill="#333" d="M138 0h-27L54-167c3 53 2 111 2 167H25v-190h49c16 56 39 106 51 166 11-61 34-110 50-166h48V0h-31l2-168" id="U"/><g id="j"><use transform="matrix(0.05802469135802469,0,0,0.05802469135802469,0,0)" xlink:href="#Q"/><use transform="matrix(0.05802469135802469,0,0,0.05802469135802469,13.925925925925926,0)" xlink:href="#R"/><use transform="matrix(0.05802469135802469,0,0,0.05802469135802469,25.58888888888889,0)" xlink:href="#S"/><use transform="matrix(0.05802469135802469,0,0,0.05802469135802469,39.68888888888889,0)" xlink:href="#y"/><use transform="matrix(0.05802469135802469,0,0,0.05802469135802469,51.351851851851855,0)" xlink:href="#T"/><use transform="matrix(0.05802469135802469,0,0,0.05802469135802469,66.38024691358025,0)" xlink:href="#U"/><use transform="matrix(0.05802469135802469,0,0,0.05802469135802469,80.71234567901234,0)" xlink:href="#C"/><use transform="matrix(0.05802469135802469,0,0,0.05802469135802469,92.31728395061728,0)" xlink:href="#v"/><use transform="matrix(0.05802469135802469,0,0,0.05802469135802469,103.45802469135802,0)" xlink:href="#D"/></g><path fill="#333" d="M140-251c81 0 123 46 123 126C263-46 219 4 140 4 59 4 17-45 17-125s42-126 123-126zm0 227c63 0 89-41 89-101s-29-99-89-99c-61 0-89 39-89 99S79-25 140-24" id="V"/><g id="k"><use transform="matrix(0.05802469135802469,0,0,0.05802469135802469,0,0)" xlink:href="#V"/><use transform="matrix(0.05802469135802469,0,0,0.05802469135802469,16.246913580246915,0)" xlink:href="#V"/><use transform="matrix(0.05802469135802469,0,0,0.05802469135802469,32.49382716049383,0)" xlink:href="#V"/></g><path fill="#333" d="M154-217c63-1 99 29 99 88s-35 93-99 91V2h-34v-40c-64 1-99-31-99-91s36-90 99-88v-32h34v32zm0 155c44 0 65-24 65-67s-22-64-65-64v131zm-34-131c-43-1-67 20-66 64 0 43 22 67 66 67v-131" id="W"/><g id="l"><use transform="matrix(0.06172839506172839,0,0,0.06172839506172839,0,0)" xlink:href="#W"/><use transform="matrix(0.06172839506172839,0,0,0.06172839506172839,16.85185185185185,0)" xlink:href="#t"/><use transform="matrix(0.06172839506172839,0,0,0.06172839506172839,32.77777777777778,0)" xlink:href="#V"/></g><path fill="#333" d="M57-190v80h85v-80h32V0h-32v-87H57V0H25v-190h32" id="X"/><path fill="#333" d="M152-53C154 19 21 22 9-41l28-8c5 36 84 42 81-4-1-29-28-34-58-35v-24c28 0 55-4 55-30 0-19-14-29-34-28-20 0-35 7-38 25l-28-3c4-33 30-46 66-46 37 0 66 15 66 50 0 27-20 41-44 44 27 5 48 17 49 47" id="Y"/><g id="m"><use transform="matrix(0.06790123456790123,0,0,0.06790123456790123,0,0)" xlink:href="#X"/><use transform="matrix(0.06790123456790123,0,0,0.06790123456790123,13.444444444444443,0)" xlink:href="#C"/><use transform="matrix(0.06790123456790123,0,0,0.06790123456790123,26.753086419753085,0)" xlink:href="#Y"/><use transform="matrix(0.06790123456790123,0,0,0.06790123456790123,37.95679012345679,0)" xlink:href="#X"/><use transform="matrix(0.06790123456790123,0,0,0.06790123456790123,51.40123456790123,0)" xlink:href="#C"/><use transform="matrix(0.06790123456790123,0,0,0.06790123456790123,64.43827160493827,0)" xlink:href="#x"/><use transform="matrix(0.06790123456790123,0,0,0.06790123456790123,77.1358024691358,0)" xlink:href="#z"/><use transform="matrix(0.06790123456790123,0,0,0.06790123456790123,90.71604938271605,0)" xlink:href="#X"/><use transform="matrix(0.06790123456790123,0,0,0.06790123456790123,104.1604938271605,0)" xlink:href="#y"/><use transform="matrix(0.06790123456790123,0,0,0.06790123456790123,117.80864197530865,0)" xlink:href="#z"/></g><g id="n"><use transform="matrix(0.06790123456790123,0,0,0.06790123456790123,0,0)" xlink:href="#A"/><use transform="matrix(0.06790123456790123,0,0,0.06790123456790123,13.172839506172838,0)" xlink:href="#B"/><use transform="matrix(0.06790123456790123,0,0,0.06790123456790123,27.432098765432094,0)" xlink:href="#C"/><use transform="matrix(0.06790123456790123,0,0,0.06790123456790123,40.46913580246913,0)" xlink:href="#D"/><use transform="matrix(0.06790123456790123,0,0,0.06790123456790123,51.33333333333333,0)" xlink:href="#z"/><use transform="matrix(0.06790123456790123,0,0,0.06790123456790123,64.64197530864197,0)" xlink:href="#E"/><use transform="matrix(0.06790123456790123,0,0,0.06790123456790123,80.93827160493827,0)" xlink:href="#C"/></g><g id="o"><use transform="matrix(0.06790123456790123,0,0,0.06790123456790123,0,0)" xlink:href="#X"/><use transform="matrix(0.06790123456790123,0,0,0.06790123456790123,13.444444444444443,0)" xlink:href="#w"/><use transform="matrix(0.06790123456790123,0,0,0.06790123456790123,27.02469135802469,0)" xlink:href="#U"/><use transform="matrix(0.06790123456790123,0,0,0.06790123456790123,43.79629629629629,0)" xlink:href="#z"/><use transform="matrix(0.06790123456790123,0,0,0.06790123456790123,57.37654320987654,0)" xlink:href="#v"/></g><path fill="#333" d="M217-194c52 0 64 44 64 98S268 2 217 4c-29 1-44-13-55-34l1 105h-30V-31C124-8 108 4 79 4 29 4 16-37 15-94c0-57 15-98 64-100 29 0 44 14 55 33l-1-100h30v101c10-23 24-34 54-34zM89-170c-37 1-41 36-41 75 0 37 3 74 40 74 39 0 45-35 45-76-1-39-6-73-44-73zM207-20c38 0 41-36 41-75 0-38-3-74-40-74-41 0-45 36-45 80 1 38 7 69 44 69" id="Z"/><g id="p"><use transform="matrix(0.06790123456790123,0,0,0.06790123456790123,0,0)" xlink:href="#D"/><use transform="matrix(0.06790123456790123,0,0,0.06790123456790123,10.864197530864196,0)" xlink:href="#z"/><use transform="matrix(0.06790123456790123,0,0,0.06790123456790123,23.62962962962963,0)" xlink:href="#B"/><use transform="matrix(0.06790123456790123,0,0,0.06790123456790123,37.888888888888886,0)" xlink:href="#z"/><use transform="matrix(0.06790123456790123,0,0,0.06790123456790123,51.46913580246913,0)" xlink:href="#Z"/><use transform="matrix(0.06790123456790123,0,0,0.06790123456790123,71.5679012345679,0)" xlink:href="#w"/><use transform="matrix(0.06790123456790123,0,0,0.06790123456790123,85.14814814814815,0)" xlink:href="#X"/><use transform="matrix(0.06790123456790123,0,0,0.06790123456790123,98.59259259259261,0)" xlink:href="#C"/></g><g id="q"><use transform="matrix(0.06790123456790123,0,0,0.06790123456790123,0,0)" xlink:href="#L"/><use transform="matrix(0.06790123456790123,0,0,0.06790123456790123,12.222222222222221,0)" xlink:href="#K"/><use transform="matrix(0.06790123456790123,0,0,0.06790123456790123,24.17283950617284,0)" xlink:href="#U"/><use transform="matrix(0.06790123456790123,0,0,0.06790123456790123,40.94444444444444,0)" xlink:href="#U"/><use transform="matrix(0.06790123456790123,0,0,0.06790123456790123,57.71604938271605,0)" xlink:href="#C"/></g></defs></g></svg>